M48
;DRILL file {KiCad 4.0.7-e2-6376~58~ubuntu16.04.1} date Sun Jun  3 17:29:47 2018
;FORMAT={-:-/ absolute / inch / decimal}
FMAT,2
INCH,TZ
T1C0.016
T2C0.039
T3C0.040
T4C0.059
T5C0.063
T6C0.098
%
G90
G05
M72
T1
X4.9606Y-4.1043
X4.9606Y-4.134
X5.4232Y-4.0945
X5.4724Y-4.1437
X5.7579Y-3.9961
X5.7579Y-4.0354
X5.7677Y-4.1142
X5.8465Y-3.9862
X5.8858Y-2.0579
X5.8858Y-4.0502
X5.9154Y-4.0748
X5.9254Y-2.0139
X5.935Y-4.9508
X5.9597Y-2.0579
X6.0236Y-2.0177
X6.0433Y-2.0571
X6.063Y-2.0276
X6.0925Y-2.0571
X6.122Y-2.0276
X6.122Y-2.0768
T2
X3.6516Y-2.0654
X3.6516Y-2.1654
X3.7894Y-4.9508
X5.8661Y-5.274
X5.8661Y-5.374
X5.8957Y-4.4669
X5.8957Y-4.5669
X5.8957Y-4.6669
X6.0236Y-2.2343
X6.0236Y-2.7134
X6.0236Y-2.8134
X6.0236Y-2.9134
T3
X6.3094Y-2.0276
X6.3094Y-2.1276
X6.3094Y-2.2276
X6.3094Y-2.3276
X6.3094Y-2.4276
X6.3094Y-2.5276
X6.3094Y-2.6276
X6.3094Y-2.7276
X6.3094Y-2.8276
X6.3094Y-2.9276
X6.3094Y-3.0276
X6.3094Y-3.1276
X6.3094Y-3.2276
X6.3094Y-3.3276
X6.3094Y-3.4276
X6.3094Y-3.5276
X6.3094Y-3.6276
X6.3094Y-3.7276
X6.3094Y-3.8276
X6.3094Y-3.9276
X6.3094Y-4.0276
X6.3094Y-4.1276
X6.3094Y-4.2276
X6.3094Y-4.3276
X6.3094Y-4.4276
X6.3094Y-4.5276
X6.3094Y-4.6276
X6.3094Y-4.7276
X6.3094Y-4.8276
X6.3094Y-4.9276
X6.3094Y-5.0276
X6.3094Y-5.1276
X6.4094Y-2.0276
X6.4094Y-2.1276
X6.4094Y-2.2276
X6.4094Y-2.3276
X6.4094Y-2.4276
X6.4094Y-2.5276
X6.4094Y-2.6276
X6.4094Y-2.7276
X6.4094Y-2.8276
X6.4094Y-2.9276
X6.4094Y-3.0276
X6.4094Y-3.1276
X6.4094Y-3.2276
X6.4094Y-3.3276
X6.4094Y-3.4276
X6.4094Y-3.5276
X6.4094Y-3.6276
X6.4094Y-3.7276
X6.4094Y-3.8276
X6.4094Y-3.9276
X6.4094Y-4.0276
X6.4094Y-4.1276
X6.4094Y-4.2276
X6.4094Y-4.3276
X6.4094Y-4.4276
X6.4094Y-4.5276
X6.4094Y-4.6276
X6.4094Y-4.7276
X6.4094Y-4.8276
X6.4094Y-4.9276
X6.4094Y-5.0276
X6.4094Y-5.1276
T4
X4.071Y-2.6593
X4.2641Y-2.935
X4.421Y-3.1591
X4.9144Y-3.5941
X5.3991Y-4.0266
X5.558Y-4.2494
X5.7535Y-4.5234
T5
X4.8144Y-3.4941
X4.8144Y-3.6941
X5.0144Y-3.4941
X5.0144Y-3.6941
T6
X3.8346Y-3.626
X4.5827Y-3.4173
X4.5827Y-3.7756
X5.248Y-3.4173
X5.248Y-3.7717
X5.9961Y-3.5591
T0
M30
