M48
;DRILL file {KiCad 4.0.7-e2-6376~58~ubuntu16.04.1} date Tue May 15 20:23:54 2018
;FORMAT={-:-/ absolute / inch / decimal}
FMAT,2
INCH,TZ
T1C0.016
T2C0.039
T3C0.040
T4C0.059
T5C0.063
T6C0.079
T7C0.125
%
G90
G05
M72
T1
X5.7579Y-3.9961
X5.7579Y-4.0354
X5.7677Y-4.1142
X5.8465Y-3.9862
X5.8858Y-4.0502
X5.9154Y-4.0748
T2
X3.7894Y-4.9508
X6.0138Y-4.4669
X6.0138Y-4.5669
X6.0138Y-4.6669
X6.0236Y-2.2343
X6.0236Y-2.7134
X6.0236Y-2.8134
X6.0236Y-2.9134
T3
X6.3094Y-2.1118
X6.3094Y-2.2118
X6.3094Y-2.3118
X6.3094Y-2.4118
X6.3094Y-2.5118
X6.3094Y-2.6118
X6.3094Y-2.7118
X6.3094Y-2.8118
X6.3094Y-2.9118
X6.3094Y-3.0118
X6.3094Y-3.1118
X6.3094Y-3.2118
X6.3094Y-3.3118
X6.3094Y-3.4118
X6.3094Y-3.5118
X6.3094Y-3.6118
X6.3094Y-3.7118
X6.3094Y-3.8118
X6.3094Y-3.9118
X6.3094Y-4.0118
X6.3094Y-4.1118
X6.3094Y-4.2118
X6.3094Y-4.3118
X6.3094Y-4.4118
X6.3094Y-4.5118
X6.3094Y-4.6118
X6.3094Y-4.7118
X6.3094Y-4.8118
X6.3094Y-4.9118
X6.3094Y-5.0118
X6.3094Y-5.1118
X6.3094Y-5.2118
X6.4094Y-2.1118
X6.4094Y-2.2118
X6.4094Y-2.3118
X6.4094Y-2.4118
X6.4094Y-2.5118
X6.4094Y-2.6118
X6.4094Y-2.7118
X6.4094Y-2.8118
X6.4094Y-2.9118
X6.4094Y-3.0118
X6.4094Y-3.1118
X6.4094Y-3.2118
X6.4094Y-3.3118
X6.4094Y-3.4118
X6.4094Y-3.5118
X6.4094Y-3.6118
X6.4094Y-3.7118
X6.4094Y-3.8118
X6.4094Y-3.9118
X6.4094Y-4.0118
X6.4094Y-4.1118
X6.4094Y-4.2118
X6.4094Y-4.3118
X6.4094Y-4.4118
X6.4094Y-4.5118
X6.4094Y-4.6118
X6.4094Y-4.7118
X6.4094Y-4.8118
X6.4094Y-4.9118
X6.4094Y-5.0118
X6.4094Y-5.1118
X6.4094Y-5.2118
T4
X4.071Y-2.6593
X4.2641Y-2.935
X4.421Y-3.1591
X4.9144Y-3.5941
X5.3991Y-4.0266
X5.558Y-4.2494
X5.7535Y-4.5234
T5
X4.8144Y-3.4941
X4.8144Y-3.6941
X5.0144Y-3.4941
X5.0144Y-3.6941
T6
X4.2913Y-3.4154
X4.2913Y-3.75
X5.5118Y-3.4154
X5.5118Y-3.7894
T7
X3.6402Y-5.4134
X3.7008Y-1.8323
X6.128Y-5.3543
X6.189Y-1.7732
T0
M30
