G04 #@! TF.FileFunction,Soldermask,Bot*
%FSLAX46Y46*%
G04 Gerber Fmt 4.6, Leading zero omitted, Abs format (unit mm)*
G04 Created by KiCad (PCBNEW 4.0.7-e2-6376~58~ubuntu16.04.1) date Tue May 15 20:23:52 2018*
%MOMM*%
%LPD*%
G01*
G04 APERTURE LIST*
%ADD10C,0.100000*%
%ADD11C,0.150000*%
%ADD12C,1.770000*%
%ADD13C,2.450000*%
%ADD14C,2.350000*%
%ADD15C,6.400000*%
%ADD16C,3.550000*%
%ADD17C,2.050000*%
%ADD18R,1.750000X1.750000*%
%ADD19O,1.750000X1.750000*%
%ADD20R,0.650000X0.470000*%
%ADD21C,2.550000*%
G04 APERTURE END LIST*
D10*
D11*
X162892857Y-135702381D02*
X163464286Y-135702381D01*
X163178572Y-135702381D02*
X163178572Y-134702381D01*
X163273810Y-134845238D01*
X163369048Y-134940476D01*
X163464286Y-134988095D01*
X162511905Y-135416667D02*
X162035714Y-135416667D01*
X162607143Y-135702381D02*
X162273810Y-134702381D01*
X161940476Y-135702381D01*
D12*
X160260000Y-53640000D03*
X160260000Y-56180000D03*
X160260000Y-58720000D03*
X160260000Y-61260000D03*
X160260000Y-63800000D03*
X160260000Y-66340000D03*
X160260000Y-68880000D03*
X160260000Y-71420000D03*
X160260000Y-73960000D03*
X160260000Y-76500000D03*
X160260000Y-79040000D03*
X160260000Y-81580000D03*
X160260000Y-84120000D03*
X160260000Y-86660000D03*
X160260000Y-89200000D03*
X160260000Y-91740000D03*
X160260000Y-94280000D03*
X160260000Y-96820000D03*
X160260000Y-99360000D03*
X160260000Y-101900000D03*
X160260000Y-104440000D03*
X160260000Y-106980000D03*
X160260000Y-109520000D03*
X160260000Y-112060000D03*
X160260000Y-114600000D03*
X160260000Y-117140000D03*
X160260000Y-119680000D03*
X160260000Y-122220000D03*
X160260000Y-124760000D03*
X160260000Y-127300000D03*
X160260000Y-129840000D03*
X160260000Y-132380000D03*
X162800000Y-53640000D03*
X162800000Y-56180000D03*
X162800000Y-58720000D03*
X162800000Y-61260000D03*
X162800000Y-63800000D03*
X162800000Y-66340000D03*
X162800000Y-68880000D03*
X162800000Y-71420000D03*
X162800000Y-73960000D03*
X162800000Y-76500000D03*
X162800000Y-79040000D03*
X162800000Y-81580000D03*
X162800000Y-84120000D03*
X162800000Y-86660000D03*
X162800000Y-89200000D03*
X162800000Y-91740000D03*
X162800000Y-94280000D03*
X162800000Y-96820000D03*
X162800000Y-99360000D03*
X162800000Y-101900000D03*
X162800000Y-104440000D03*
X162800000Y-106980000D03*
X162800000Y-109520000D03*
X162800000Y-112060000D03*
X162800000Y-114600000D03*
X162800000Y-117140000D03*
X162800000Y-119680000D03*
X162800000Y-122220000D03*
X162800000Y-124760000D03*
X162800000Y-127300000D03*
X162800000Y-129840000D03*
X162800000Y-132380000D03*
D13*
X122285000Y-88750000D03*
X127365000Y-88750000D03*
X127365000Y-93830000D03*
D14*
X124825000Y-91290000D03*
D13*
X122285000Y-93830000D03*
D15*
X155650000Y-136000000D03*
X92460000Y-137500000D03*
X94000000Y-46540000D03*
X157200000Y-45040000D03*
D16*
X109000000Y-86750000D03*
X109000000Y-95250000D03*
X140000000Y-86750000D03*
X140000000Y-96250000D03*
D17*
X153000000Y-56750000D03*
X96250000Y-125750000D03*
D18*
X153000000Y-74000000D03*
D19*
X153000000Y-71460000D03*
X153000000Y-68920000D03*
D18*
X152750000Y-118540000D03*
D19*
X152750000Y-116000000D03*
X152750000Y-113460000D03*
D20*
X147550000Y-102400000D03*
X147550000Y-101750000D03*
X147550000Y-101100000D03*
X149450000Y-102400000D03*
X149450000Y-101750000D03*
X149450000Y-101100000D03*
D21*
X108307315Y-74549231D03*
X103403237Y-67545481D03*
X112293672Y-80242338D03*
D13*
X115750000Y-74281944D03*
X110301024Y-66500000D03*
D21*
X141173391Y-107933676D03*
X146138401Y-114894364D03*
X137137505Y-102275574D03*
D13*
X133733322Y-108265902D03*
X139250000Y-116000000D03*
M02*
