G04 #@! TF.FileFunction,Copper,L1,Top,Signal*
%FSLAX46Y46*%
G04 Gerber Fmt 4.6, Leading zero omitted, Abs format (unit mm)*
G04 Created by KiCad (PCBNEW 4.0.7-e2-6376~58~ubuntu16.04.1) date Sun Jun  3 17:29:45 2018*
%MOMM*%
%LPD*%
G01*
G04 APERTURE LIST*
%ADD10C,0.100000*%
%ADD11C,1.720000*%
%ADD12C,2.400000*%
%ADD13C,2.300000*%
%ADD14C,2.000000*%
%ADD15R,1.700000X1.700000*%
%ADD16O,1.700000X1.700000*%
%ADD17R,0.600000X0.420000*%
%ADD18C,2.500000*%
%ADD19C,3.300000*%
%ADD20C,0.600000*%
%ADD21C,1.000000*%
%ADD22C,3.500000*%
%ADD23C,0.250000*%
%ADD24C,0.254000*%
G04 APERTURE END LIST*
D10*
D11*
X160260000Y-51500000D03*
X160260000Y-54040000D03*
X160260000Y-56580000D03*
X160260000Y-59120000D03*
X160260000Y-61660000D03*
X160260000Y-64200000D03*
X160260000Y-66740000D03*
X160260000Y-69280000D03*
X160260000Y-71820000D03*
X160260000Y-74360000D03*
X160260000Y-76900000D03*
X160260000Y-79440000D03*
X160260000Y-81980000D03*
X160260000Y-84520000D03*
X160260000Y-87060000D03*
X160260000Y-89600000D03*
X160260000Y-92140000D03*
X160260000Y-94680000D03*
X160260000Y-97220000D03*
X160260000Y-99760000D03*
X160260000Y-102300000D03*
X160260000Y-104840000D03*
X160260000Y-107380000D03*
X160260000Y-109920000D03*
X160260000Y-112460000D03*
X160260000Y-115000000D03*
X160260000Y-117540000D03*
X160260000Y-120080000D03*
X160260000Y-122620000D03*
X160260000Y-125160000D03*
X160260000Y-127700000D03*
X160260000Y-130240000D03*
X162800000Y-51500000D03*
X162800000Y-54040000D03*
X162800000Y-56580000D03*
X162800000Y-59120000D03*
X162800000Y-61660000D03*
X162800000Y-64200000D03*
X162800000Y-66740000D03*
X162800000Y-69280000D03*
X162800000Y-71820000D03*
X162800000Y-74360000D03*
X162800000Y-76900000D03*
X162800000Y-79440000D03*
X162800000Y-81980000D03*
X162800000Y-84520000D03*
X162800000Y-87060000D03*
X162800000Y-89600000D03*
X162800000Y-92140000D03*
X162800000Y-94680000D03*
X162800000Y-97220000D03*
X162800000Y-99760000D03*
X162800000Y-102300000D03*
X162800000Y-104840000D03*
X162800000Y-107380000D03*
X162800000Y-109920000D03*
X162800000Y-112460000D03*
X162800000Y-115000000D03*
X162800000Y-117540000D03*
X162800000Y-120080000D03*
X162800000Y-122620000D03*
X162800000Y-125160000D03*
X162800000Y-127700000D03*
X162800000Y-130240000D03*
D12*
X122285000Y-88750000D03*
X127365000Y-88750000D03*
X127365000Y-93830000D03*
D13*
X124825000Y-91290000D03*
D12*
X122285000Y-93830000D03*
D14*
X153000000Y-56750000D03*
X96250000Y-125750000D03*
D15*
X153000000Y-74000000D03*
D16*
X153000000Y-71460000D03*
X153000000Y-68920000D03*
D15*
X149750000Y-118540000D03*
D16*
X149750000Y-116000000D03*
X149750000Y-113460000D03*
D17*
X147550000Y-104100000D03*
X147550000Y-104750000D03*
X147550000Y-105400000D03*
X149450000Y-104100000D03*
X149450000Y-104750000D03*
X149450000Y-105400000D03*
D18*
X108307315Y-74549231D03*
X103403237Y-67545481D03*
X112293672Y-80242338D03*
X141173391Y-107933676D03*
X146138401Y-114894364D03*
X137137505Y-102275574D03*
D15*
X149000000Y-133960000D03*
D16*
X149000000Y-136500000D03*
D15*
X92750000Y-55000000D03*
D16*
X92750000Y-52460000D03*
D19*
X116400000Y-86800000D03*
X116400000Y-95900000D03*
X133300000Y-86800000D03*
X133300000Y-95800000D03*
X97400000Y-92100000D03*
X152300000Y-90400000D03*
D20*
X150750000Y-125750000D03*
X146500000Y-104500000D03*
X146250000Y-101500000D03*
X139000000Y-105250000D03*
X126000000Y-105002403D03*
X150250000Y-103500000D03*
X148500000Y-101250000D03*
X137750000Y-104000000D03*
X126000000Y-104250000D03*
X146250000Y-102500000D03*
X149500000Y-102875000D03*
X149500000Y-52270892D03*
X150504219Y-51154109D03*
X153000000Y-51250000D03*
X154000000Y-51500000D03*
X155500000Y-52750000D03*
X155500000Y-51500000D03*
X154750000Y-52250000D03*
X153500000Y-52250000D03*
X151377305Y-52270892D03*
D21*
X124723942Y-97276058D02*
X124825000Y-97175000D01*
X124825000Y-97175000D02*
X124825000Y-91290000D01*
D22*
X124723942Y-97276058D02*
X96250000Y-125750000D01*
X153000000Y-56750000D02*
X124000000Y-85750000D01*
D23*
X150750000Y-125750000D02*
X150750000Y-126174264D01*
X150750000Y-126174264D02*
X154815736Y-130240000D01*
X154815736Y-130240000D02*
X159043777Y-130240000D01*
X159043777Y-130240000D02*
X160260000Y-130240000D01*
X146500000Y-104250000D02*
X147000000Y-104750000D01*
X145624999Y-103374999D02*
X146500000Y-104250000D01*
X146500000Y-104250000D02*
X146500000Y-104500000D01*
X146250000Y-101500000D02*
X145825736Y-101500000D01*
X145825736Y-101500000D02*
X145624999Y-101700737D01*
X145624999Y-101700737D02*
X145624999Y-103374999D01*
X147000000Y-104750000D02*
X147550000Y-104750000D01*
X146138401Y-114894364D02*
X146138401Y-117127723D01*
X146138401Y-117127723D02*
X154170678Y-125160000D01*
X154170678Y-125160000D02*
X156404037Y-125160000D01*
X160260000Y-125160000D02*
X156404037Y-125160000D01*
X126000000Y-105002403D02*
X138752403Y-105002403D01*
X138752403Y-105002403D02*
X139000000Y-105250000D01*
X150250000Y-103500000D02*
X150250000Y-104500000D01*
X150250000Y-104500000D02*
X150000000Y-104750000D01*
X150000000Y-104750000D02*
X149450000Y-104750000D01*
X148500000Y-105750000D02*
X148500000Y-114750000D01*
X148500000Y-114750000D02*
X149750000Y-116000000D01*
X148500000Y-105500000D02*
X148500000Y-105750000D01*
X148900000Y-105400000D02*
X148850000Y-105400000D01*
X148850000Y-105400000D02*
X148500000Y-105750000D01*
X148500000Y-105000000D02*
X148500000Y-105500000D01*
X148900000Y-105400000D02*
X148600000Y-105400000D01*
X148600000Y-105400000D02*
X148500000Y-105500000D01*
X148500000Y-101250000D02*
X148500000Y-105000000D01*
X148500000Y-105000000D02*
X148900000Y-105400000D01*
X148900000Y-105400000D02*
X149450000Y-105400000D01*
X136498732Y-101380047D02*
X140518685Y-105400000D01*
X140518685Y-105400000D02*
X147550000Y-105400000D01*
X126000000Y-104250000D02*
X137500000Y-104250000D01*
X137500000Y-104250000D02*
X137750000Y-104000000D01*
X147550000Y-104100000D02*
X147550000Y-103800000D01*
X147550000Y-103800000D02*
X146250000Y-102500000D01*
X160260000Y-99760000D02*
X158120000Y-101900000D01*
X158120000Y-101900000D02*
X150924998Y-101900000D01*
X150924998Y-101900000D02*
X149450000Y-103374998D01*
X149450000Y-103374998D02*
X149450000Y-102925000D01*
X149450000Y-102925000D02*
X149500000Y-102875000D01*
X149450000Y-104100000D02*
X149450000Y-103374998D01*
X160260000Y-112460000D02*
X150750000Y-112460000D01*
X150750000Y-112460000D02*
X149750000Y-113460000D01*
X160260000Y-115000000D02*
X153290000Y-115000000D01*
X153290000Y-115000000D02*
X149750000Y-118540000D01*
X154000000Y-51500000D02*
X153250000Y-51500000D01*
X153250000Y-51500000D02*
X153000000Y-51250000D01*
X155500000Y-51500000D02*
X155500000Y-52750000D01*
X153500000Y-52250000D02*
X154750000Y-52250000D01*
D24*
G36*
X130873000Y-97873000D02*
X126982203Y-97873000D01*
X127100942Y-97276058D01*
X126920004Y-96366420D01*
X126404735Y-95595265D01*
X125952000Y-95292757D01*
X125952000Y-92675831D01*
X126330588Y-92297904D01*
X126601690Y-91645018D01*
X126602307Y-90938084D01*
X126332345Y-90284726D01*
X125832904Y-89784412D01*
X125180018Y-89513310D01*
X124473084Y-89512693D01*
X123819726Y-89782655D01*
X123319412Y-90282096D01*
X123048310Y-90934982D01*
X123047693Y-91641916D01*
X123317655Y-92295274D01*
X123698000Y-92676284D01*
X123698000Y-95157708D01*
X123043149Y-95595265D01*
X120765414Y-97873000D01*
X119127000Y-97873000D01*
X119127000Y-85127000D01*
X130873000Y-85127000D01*
X130873000Y-97873000D01*
X130873000Y-97873000D01*
G37*
X130873000Y-97873000D02*
X126982203Y-97873000D01*
X127100942Y-97276058D01*
X126920004Y-96366420D01*
X126404735Y-95595265D01*
X125952000Y-95292757D01*
X125952000Y-92675831D01*
X126330588Y-92297904D01*
X126601690Y-91645018D01*
X126602307Y-90938084D01*
X126332345Y-90284726D01*
X125832904Y-89784412D01*
X125180018Y-89513310D01*
X124473084Y-89512693D01*
X123819726Y-89782655D01*
X123319412Y-90282096D01*
X123048310Y-90934982D01*
X123047693Y-91641916D01*
X123317655Y-92295274D01*
X123698000Y-92676284D01*
X123698000Y-95157708D01*
X123043149Y-95595265D01*
X120765414Y-97873000D01*
X119127000Y-97873000D01*
X119127000Y-85127000D01*
X130873000Y-85127000D01*
X130873000Y-97873000D01*
G36*
X163544000Y-53028727D02*
X163503888Y-52988545D01*
X163047933Y-52799216D01*
X162554233Y-52798785D01*
X162097948Y-52987318D01*
X161748545Y-53336112D01*
X161559216Y-53792067D01*
X161558785Y-54285767D01*
X161747318Y-54742052D01*
X162096112Y-55091455D01*
X162552067Y-55280784D01*
X163045767Y-55281215D01*
X163502052Y-55092682D01*
X163544000Y-55050807D01*
X163544000Y-55568727D01*
X163503888Y-55528545D01*
X163047933Y-55339216D01*
X162554233Y-55338785D01*
X162097948Y-55527318D01*
X161748545Y-55876112D01*
X161559216Y-56332067D01*
X161558785Y-56825767D01*
X161747318Y-57282052D01*
X162096112Y-57631455D01*
X162552067Y-57820784D01*
X163045767Y-57821215D01*
X163502052Y-57632682D01*
X163544000Y-57590807D01*
X163544000Y-57873000D01*
X158127000Y-57873000D01*
X158127000Y-56825767D01*
X159018785Y-56825767D01*
X159207318Y-57282052D01*
X159556112Y-57631455D01*
X160012067Y-57820784D01*
X160505767Y-57821215D01*
X160962052Y-57632682D01*
X161311455Y-57283888D01*
X161500784Y-56827933D01*
X161501215Y-56334233D01*
X161312682Y-55877948D01*
X160963888Y-55528545D01*
X160507933Y-55339216D01*
X160014233Y-55338785D01*
X159557948Y-55527318D01*
X159208545Y-55876112D01*
X159019216Y-56332067D01*
X159018785Y-56825767D01*
X158127000Y-56825767D01*
X158127000Y-53250000D01*
X158116994Y-53200590D01*
X158088553Y-53158965D01*
X158046159Y-53131685D01*
X158000000Y-53123000D01*
X149377000Y-53123000D01*
X149377000Y-50627000D01*
X163544000Y-50627000D01*
X163544000Y-53028727D01*
X163544000Y-53028727D01*
G37*
X163544000Y-53028727D02*
X163503888Y-52988545D01*
X163047933Y-52799216D01*
X162554233Y-52798785D01*
X162097948Y-52987318D01*
X161748545Y-53336112D01*
X161559216Y-53792067D01*
X161558785Y-54285767D01*
X161747318Y-54742052D01*
X162096112Y-55091455D01*
X162552067Y-55280784D01*
X163045767Y-55281215D01*
X163502052Y-55092682D01*
X163544000Y-55050807D01*
X163544000Y-55568727D01*
X163503888Y-55528545D01*
X163047933Y-55339216D01*
X162554233Y-55338785D01*
X162097948Y-55527318D01*
X161748545Y-55876112D01*
X161559216Y-56332067D01*
X161558785Y-56825767D01*
X161747318Y-57282052D01*
X162096112Y-57631455D01*
X162552067Y-57820784D01*
X163045767Y-57821215D01*
X163502052Y-57632682D01*
X163544000Y-57590807D01*
X163544000Y-57873000D01*
X158127000Y-57873000D01*
X158127000Y-56825767D01*
X159018785Y-56825767D01*
X159207318Y-57282052D01*
X159556112Y-57631455D01*
X160012067Y-57820784D01*
X160505767Y-57821215D01*
X160962052Y-57632682D01*
X161311455Y-57283888D01*
X161500784Y-56827933D01*
X161501215Y-56334233D01*
X161312682Y-55877948D01*
X160963888Y-55528545D01*
X160507933Y-55339216D01*
X160014233Y-55338785D01*
X159557948Y-55527318D01*
X159208545Y-55876112D01*
X159019216Y-56332067D01*
X159018785Y-56825767D01*
X158127000Y-56825767D01*
X158127000Y-53250000D01*
X158116994Y-53200590D01*
X158088553Y-53158965D01*
X158046159Y-53131685D01*
X158000000Y-53123000D01*
X149377000Y-53123000D01*
X149377000Y-50627000D01*
X163544000Y-50627000D01*
X163544000Y-53028727D01*
G36*
X159254297Y-68606740D02*
X159073206Y-69042855D01*
X159072794Y-69515073D01*
X159253123Y-69951503D01*
X159586740Y-70285703D01*
X160022855Y-70466794D01*
X160495073Y-70467206D01*
X160931503Y-70286877D01*
X161265703Y-69953260D01*
X161446794Y-69517145D01*
X161447206Y-69044927D01*
X161266877Y-68608497D01*
X161035784Y-68377000D01*
X163598000Y-68377000D01*
X163598000Y-73479255D01*
X163473260Y-73354297D01*
X163037145Y-73173206D01*
X162564927Y-73172794D01*
X162128497Y-73353123D01*
X161794297Y-73686740D01*
X161613206Y-74122855D01*
X161612794Y-74595073D01*
X161793123Y-75031503D01*
X162126740Y-75365703D01*
X162562855Y-75546794D01*
X163035073Y-75547206D01*
X163471503Y-75366877D01*
X163598000Y-75240601D01*
X163598000Y-76019255D01*
X163473260Y-75894297D01*
X163037145Y-75713206D01*
X162564927Y-75712794D01*
X162128497Y-75893123D01*
X161794297Y-76226740D01*
X161613206Y-76662855D01*
X161612794Y-77135073D01*
X161793123Y-77571503D01*
X162126740Y-77905703D01*
X162562855Y-78086794D01*
X163035073Y-78087206D01*
X163471503Y-77906877D01*
X163598000Y-77780601D01*
X163598000Y-78373000D01*
X163325641Y-78373000D01*
X163037145Y-78253206D01*
X162564927Y-78252794D01*
X162274006Y-78373000D01*
X160785641Y-78373000D01*
X160497145Y-78253206D01*
X160024927Y-78252794D01*
X159734006Y-78373000D01*
X151618406Y-78373000D01*
X151618406Y-77135073D01*
X159072794Y-77135073D01*
X159253123Y-77571503D01*
X159586740Y-77905703D01*
X160022855Y-78086794D01*
X160495073Y-78087206D01*
X160931503Y-77906877D01*
X161265703Y-77573260D01*
X161446794Y-77137145D01*
X161447206Y-76664927D01*
X161266877Y-76228497D01*
X160933260Y-75894297D01*
X160497145Y-75713206D01*
X160024927Y-75712794D01*
X159588497Y-75893123D01*
X159254297Y-76226740D01*
X159073206Y-76662855D01*
X159072794Y-77135073D01*
X151618406Y-77135073D01*
X151618406Y-74595073D01*
X159072794Y-74595073D01*
X159253123Y-75031503D01*
X159586740Y-75365703D01*
X160022855Y-75546794D01*
X160495073Y-75547206D01*
X160931503Y-75366877D01*
X161265703Y-75033260D01*
X161446794Y-74597145D01*
X161447206Y-74124927D01*
X161266877Y-73688497D01*
X160933260Y-73354297D01*
X160497145Y-73173206D01*
X160024927Y-73172794D01*
X159588497Y-73353123D01*
X159254297Y-73686740D01*
X159073206Y-74122855D01*
X159072794Y-74595073D01*
X151618406Y-74595073D01*
X151618406Y-72627000D01*
X152926668Y-72627000D01*
X152976941Y-72637000D01*
X153023059Y-72637000D01*
X153073332Y-72627000D01*
X153741406Y-72627000D01*
X153790816Y-72616994D01*
X153831209Y-72589803D01*
X154331209Y-72089803D01*
X154354241Y-72055073D01*
X159072794Y-72055073D01*
X159253123Y-72491503D01*
X159586740Y-72825703D01*
X160022855Y-73006794D01*
X160495073Y-73007206D01*
X160931503Y-72826877D01*
X161265703Y-72493260D01*
X161446794Y-72057145D01*
X161447206Y-71584927D01*
X161266877Y-71148497D01*
X160933260Y-70814297D01*
X160497145Y-70633206D01*
X160024927Y-70632794D01*
X159588497Y-70813123D01*
X159254297Y-71146740D01*
X159073206Y-71582855D01*
X159072794Y-72055073D01*
X154354241Y-72055073D01*
X154359072Y-72047789D01*
X154368406Y-72000291D01*
X154376710Y-68377000D01*
X159484438Y-68377000D01*
X159254297Y-68606740D01*
X159254297Y-68606740D01*
G37*
X159254297Y-68606740D02*
X159073206Y-69042855D01*
X159072794Y-69515073D01*
X159253123Y-69951503D01*
X159586740Y-70285703D01*
X160022855Y-70466794D01*
X160495073Y-70467206D01*
X160931503Y-70286877D01*
X161265703Y-69953260D01*
X161446794Y-69517145D01*
X161447206Y-69044927D01*
X161266877Y-68608497D01*
X161035784Y-68377000D01*
X163598000Y-68377000D01*
X163598000Y-73479255D01*
X163473260Y-73354297D01*
X163037145Y-73173206D01*
X162564927Y-73172794D01*
X162128497Y-73353123D01*
X161794297Y-73686740D01*
X161613206Y-74122855D01*
X161612794Y-74595073D01*
X161793123Y-75031503D01*
X162126740Y-75365703D01*
X162562855Y-75546794D01*
X163035073Y-75547206D01*
X163471503Y-75366877D01*
X163598000Y-75240601D01*
X163598000Y-76019255D01*
X163473260Y-75894297D01*
X163037145Y-75713206D01*
X162564927Y-75712794D01*
X162128497Y-75893123D01*
X161794297Y-76226740D01*
X161613206Y-76662855D01*
X161612794Y-77135073D01*
X161793123Y-77571503D01*
X162126740Y-77905703D01*
X162562855Y-78086794D01*
X163035073Y-78087206D01*
X163471503Y-77906877D01*
X163598000Y-77780601D01*
X163598000Y-78373000D01*
X163325641Y-78373000D01*
X163037145Y-78253206D01*
X162564927Y-78252794D01*
X162274006Y-78373000D01*
X160785641Y-78373000D01*
X160497145Y-78253206D01*
X160024927Y-78252794D01*
X159734006Y-78373000D01*
X151618406Y-78373000D01*
X151618406Y-77135073D01*
X159072794Y-77135073D01*
X159253123Y-77571503D01*
X159586740Y-77905703D01*
X160022855Y-78086794D01*
X160495073Y-78087206D01*
X160931503Y-77906877D01*
X161265703Y-77573260D01*
X161446794Y-77137145D01*
X161447206Y-76664927D01*
X161266877Y-76228497D01*
X160933260Y-75894297D01*
X160497145Y-75713206D01*
X160024927Y-75712794D01*
X159588497Y-75893123D01*
X159254297Y-76226740D01*
X159073206Y-76662855D01*
X159072794Y-77135073D01*
X151618406Y-77135073D01*
X151618406Y-74595073D01*
X159072794Y-74595073D01*
X159253123Y-75031503D01*
X159586740Y-75365703D01*
X160022855Y-75546794D01*
X160495073Y-75547206D01*
X160931503Y-75366877D01*
X161265703Y-75033260D01*
X161446794Y-74597145D01*
X161447206Y-74124927D01*
X161266877Y-73688497D01*
X160933260Y-73354297D01*
X160497145Y-73173206D01*
X160024927Y-73172794D01*
X159588497Y-73353123D01*
X159254297Y-73686740D01*
X159073206Y-74122855D01*
X159072794Y-74595073D01*
X151618406Y-74595073D01*
X151618406Y-72627000D01*
X152926668Y-72627000D01*
X152976941Y-72637000D01*
X153023059Y-72637000D01*
X153073332Y-72627000D01*
X153741406Y-72627000D01*
X153790816Y-72616994D01*
X153831209Y-72589803D01*
X154331209Y-72089803D01*
X154354241Y-72055073D01*
X159072794Y-72055073D01*
X159253123Y-72491503D01*
X159586740Y-72825703D01*
X160022855Y-73006794D01*
X160495073Y-73007206D01*
X160931503Y-72826877D01*
X161265703Y-72493260D01*
X161446794Y-72057145D01*
X161447206Y-71584927D01*
X161266877Y-71148497D01*
X160933260Y-70814297D01*
X160497145Y-70633206D01*
X160024927Y-70632794D01*
X159588497Y-70813123D01*
X159254297Y-71146740D01*
X159073206Y-71582855D01*
X159072794Y-72055073D01*
X154354241Y-72055073D01*
X154359072Y-72047789D01*
X154368406Y-72000291D01*
X154376710Y-68377000D01*
X159484438Y-68377000D01*
X159254297Y-68606740D01*
G36*
X161794297Y-58446740D02*
X161613206Y-58882855D01*
X161612794Y-59355073D01*
X161793123Y-59791503D01*
X162126740Y-60125703D01*
X162562855Y-60306794D01*
X163035073Y-60307206D01*
X163471503Y-60126877D01*
X163598000Y-60000601D01*
X163598000Y-60779255D01*
X163473260Y-60654297D01*
X163037145Y-60473206D01*
X162564927Y-60472794D01*
X162128497Y-60653123D01*
X161794297Y-60986740D01*
X161613206Y-61422855D01*
X161612794Y-61895073D01*
X161793123Y-62331503D01*
X162126740Y-62665703D01*
X162562855Y-62846794D01*
X163035073Y-62847206D01*
X163471503Y-62666877D01*
X163598000Y-62540601D01*
X163598000Y-67923000D01*
X160505252Y-67923000D01*
X160931503Y-67746877D01*
X161265703Y-67413260D01*
X161446794Y-66977145D01*
X161447206Y-66504927D01*
X161266877Y-66068497D01*
X160933260Y-65734297D01*
X160497145Y-65553206D01*
X160024927Y-65552794D01*
X159588497Y-65733123D01*
X159254297Y-66066740D01*
X159073206Y-66502855D01*
X159072794Y-66975073D01*
X159253123Y-67411503D01*
X159586740Y-67745703D01*
X160013718Y-67923000D01*
X154250000Y-67923000D01*
X154131848Y-67945092D01*
X154022530Y-68015082D01*
X153949055Y-68122089D01*
X153923001Y-68249251D01*
X153918707Y-70123000D01*
X151627000Y-70123000D01*
X151627000Y-67802606D01*
X154994533Y-64435073D01*
X159072794Y-64435073D01*
X159253123Y-64871503D01*
X159586740Y-65205703D01*
X160022855Y-65386794D01*
X160495073Y-65387206D01*
X160931503Y-65206877D01*
X161265703Y-64873260D01*
X161446794Y-64437145D01*
X161447206Y-63964927D01*
X161266877Y-63528497D01*
X160933260Y-63194297D01*
X160497145Y-63013206D01*
X160024927Y-63012794D01*
X159588497Y-63193123D01*
X159254297Y-63526740D01*
X159073206Y-63962855D01*
X159072794Y-64435073D01*
X154994533Y-64435073D01*
X157534533Y-61895073D01*
X159072794Y-61895073D01*
X159253123Y-62331503D01*
X159586740Y-62665703D01*
X160022855Y-62846794D01*
X160495073Y-62847206D01*
X160931503Y-62666877D01*
X161265703Y-62333260D01*
X161446794Y-61897145D01*
X161447206Y-61424927D01*
X161266877Y-60988497D01*
X160933260Y-60654297D01*
X160497145Y-60473206D01*
X160024927Y-60472794D01*
X159588497Y-60653123D01*
X159254297Y-60986740D01*
X159073206Y-61422855D01*
X159072794Y-61895073D01*
X157534533Y-61895073D01*
X159445445Y-59984161D01*
X159586740Y-60125703D01*
X160022855Y-60306794D01*
X160495073Y-60307206D01*
X160931503Y-60126877D01*
X161265703Y-59793260D01*
X161446794Y-59357145D01*
X161447206Y-58884927D01*
X161266877Y-58448497D01*
X161195505Y-58377000D01*
X161864159Y-58377000D01*
X161794297Y-58446740D01*
X161794297Y-58446740D01*
G37*
X161794297Y-58446740D02*
X161613206Y-58882855D01*
X161612794Y-59355073D01*
X161793123Y-59791503D01*
X162126740Y-60125703D01*
X162562855Y-60306794D01*
X163035073Y-60307206D01*
X163471503Y-60126877D01*
X163598000Y-60000601D01*
X163598000Y-60779255D01*
X163473260Y-60654297D01*
X163037145Y-60473206D01*
X162564927Y-60472794D01*
X162128497Y-60653123D01*
X161794297Y-60986740D01*
X161613206Y-61422855D01*
X161612794Y-61895073D01*
X161793123Y-62331503D01*
X162126740Y-62665703D01*
X162562855Y-62846794D01*
X163035073Y-62847206D01*
X163471503Y-62666877D01*
X163598000Y-62540601D01*
X163598000Y-67923000D01*
X160505252Y-67923000D01*
X160931503Y-67746877D01*
X161265703Y-67413260D01*
X161446794Y-66977145D01*
X161447206Y-66504927D01*
X161266877Y-66068497D01*
X160933260Y-65734297D01*
X160497145Y-65553206D01*
X160024927Y-65552794D01*
X159588497Y-65733123D01*
X159254297Y-66066740D01*
X159073206Y-66502855D01*
X159072794Y-66975073D01*
X159253123Y-67411503D01*
X159586740Y-67745703D01*
X160013718Y-67923000D01*
X154250000Y-67923000D01*
X154131848Y-67945092D01*
X154022530Y-68015082D01*
X153949055Y-68122089D01*
X153923001Y-68249251D01*
X153918707Y-70123000D01*
X151627000Y-70123000D01*
X151627000Y-67802606D01*
X154994533Y-64435073D01*
X159072794Y-64435073D01*
X159253123Y-64871503D01*
X159586740Y-65205703D01*
X160022855Y-65386794D01*
X160495073Y-65387206D01*
X160931503Y-65206877D01*
X161265703Y-64873260D01*
X161446794Y-64437145D01*
X161447206Y-63964927D01*
X161266877Y-63528497D01*
X160933260Y-63194297D01*
X160497145Y-63013206D01*
X160024927Y-63012794D01*
X159588497Y-63193123D01*
X159254297Y-63526740D01*
X159073206Y-63962855D01*
X159072794Y-64435073D01*
X154994533Y-64435073D01*
X157534533Y-61895073D01*
X159072794Y-61895073D01*
X159253123Y-62331503D01*
X159586740Y-62665703D01*
X160022855Y-62846794D01*
X160495073Y-62847206D01*
X160931503Y-62666877D01*
X161265703Y-62333260D01*
X161446794Y-61897145D01*
X161447206Y-61424927D01*
X161266877Y-60988497D01*
X160933260Y-60654297D01*
X160497145Y-60473206D01*
X160024927Y-60472794D01*
X159588497Y-60653123D01*
X159254297Y-60986740D01*
X159073206Y-61422855D01*
X159072794Y-61895073D01*
X157534533Y-61895073D01*
X159445445Y-59984161D01*
X159586740Y-60125703D01*
X160022855Y-60306794D01*
X160495073Y-60307206D01*
X160931503Y-60126877D01*
X161265703Y-59793260D01*
X161446794Y-59357145D01*
X161447206Y-58884927D01*
X161266877Y-58448497D01*
X161195505Y-58377000D01*
X161864159Y-58377000D01*
X161794297Y-58446740D01*
M02*
