G04 #@! TF.FileFunction,Copper,L1,Top,Signal*
%FSLAX46Y46*%
G04 Gerber Fmt 4.6, Leading zero omitted, Abs format (unit mm)*
G04 Created by KiCad (PCBNEW 4.0.7-e2-6376~58~ubuntu16.04.1) date Tue May 15 20:23:52 2018*
%MOMM*%
%LPD*%
G01*
G04 APERTURE LIST*
%ADD10C,0.100000*%
%ADD11C,1.720000*%
%ADD12C,2.400000*%
%ADD13C,2.300000*%
%ADD14C,6.350000*%
%ADD15C,3.500000*%
%ADD16C,2.000000*%
%ADD17R,1.700000X1.700000*%
%ADD18O,1.700000X1.700000*%
%ADD19R,0.600000X0.420000*%
%ADD20C,2.500000*%
%ADD21C,0.600000*%
%ADD22C,1.000000*%
%ADD23C,3.500000*%
%ADD24C,0.250000*%
%ADD25C,0.254000*%
G04 APERTURE END LIST*
D10*
D11*
X160260000Y-53640000D03*
X160260000Y-56180000D03*
X160260000Y-58720000D03*
X160260000Y-61260000D03*
X160260000Y-63800000D03*
X160260000Y-66340000D03*
X160260000Y-68880000D03*
X160260000Y-71420000D03*
X160260000Y-73960000D03*
X160260000Y-76500000D03*
X160260000Y-79040000D03*
X160260000Y-81580000D03*
X160260000Y-84120000D03*
X160260000Y-86660000D03*
X160260000Y-89200000D03*
X160260000Y-91740000D03*
X160260000Y-94280000D03*
X160260000Y-96820000D03*
X160260000Y-99360000D03*
X160260000Y-101900000D03*
X160260000Y-104440000D03*
X160260000Y-106980000D03*
X160260000Y-109520000D03*
X160260000Y-112060000D03*
X160260000Y-114600000D03*
X160260000Y-117140000D03*
X160260000Y-119680000D03*
X160260000Y-122220000D03*
X160260000Y-124760000D03*
X160260000Y-127300000D03*
X160260000Y-129840000D03*
X160260000Y-132380000D03*
X162800000Y-53640000D03*
X162800000Y-56180000D03*
X162800000Y-58720000D03*
X162800000Y-61260000D03*
X162800000Y-63800000D03*
X162800000Y-66340000D03*
X162800000Y-68880000D03*
X162800000Y-71420000D03*
X162800000Y-73960000D03*
X162800000Y-76500000D03*
X162800000Y-79040000D03*
X162800000Y-81580000D03*
X162800000Y-84120000D03*
X162800000Y-86660000D03*
X162800000Y-89200000D03*
X162800000Y-91740000D03*
X162800000Y-94280000D03*
X162800000Y-96820000D03*
X162800000Y-99360000D03*
X162800000Y-101900000D03*
X162800000Y-104440000D03*
X162800000Y-106980000D03*
X162800000Y-109520000D03*
X162800000Y-112060000D03*
X162800000Y-114600000D03*
X162800000Y-117140000D03*
X162800000Y-119680000D03*
X162800000Y-122220000D03*
X162800000Y-124760000D03*
X162800000Y-127300000D03*
X162800000Y-129840000D03*
X162800000Y-132380000D03*
D12*
X122285000Y-88750000D03*
X127365000Y-88750000D03*
X127365000Y-93830000D03*
D13*
X124825000Y-91290000D03*
D12*
X122285000Y-93830000D03*
D14*
X155650000Y-136000000D03*
X92460000Y-137500000D03*
X94000000Y-46540000D03*
X157200000Y-45040000D03*
D15*
X109000000Y-86750000D03*
X109000000Y-95250000D03*
X140000000Y-86750000D03*
X140000000Y-96250000D03*
D16*
X153000000Y-56750000D03*
X96250000Y-125750000D03*
D17*
X153000000Y-74000000D03*
D18*
X153000000Y-71460000D03*
X153000000Y-68920000D03*
D17*
X152750000Y-118540000D03*
D18*
X152750000Y-116000000D03*
X152750000Y-113460000D03*
D19*
X147550000Y-104100000D03*
X147550000Y-104750000D03*
X147550000Y-105400000D03*
X149450000Y-104100000D03*
X149450000Y-104750000D03*
X149450000Y-105400000D03*
D20*
X108307315Y-74549231D03*
X103403237Y-67545481D03*
X112293672Y-80242338D03*
X141173391Y-107933676D03*
X146138401Y-114894364D03*
X137137505Y-102275574D03*
D21*
X146500000Y-104500000D03*
X146250000Y-101500000D03*
X150250000Y-103500000D03*
X148500000Y-101250000D03*
X146250000Y-102500000D03*
X149500000Y-102875000D03*
D22*
X124723942Y-97276058D02*
X124825000Y-97175000D01*
X124825000Y-97175000D02*
X124825000Y-91290000D01*
D23*
X124723942Y-97276058D02*
X96250000Y-125750000D01*
X153000000Y-56750000D02*
X124000000Y-85750000D01*
D24*
X146500000Y-104250000D02*
X147000000Y-104750000D01*
X145624999Y-103374999D02*
X146500000Y-104250000D01*
X146500000Y-104250000D02*
X146500000Y-104500000D01*
X146250000Y-101500000D02*
X145825736Y-101500000D01*
X145825736Y-101500000D02*
X145624999Y-101700737D01*
X145624999Y-101700737D02*
X145624999Y-103374999D01*
X147000000Y-104750000D02*
X147550000Y-104750000D01*
X150250000Y-103500000D02*
X150250000Y-104500000D01*
X150250000Y-104500000D02*
X150000000Y-104750000D01*
X150000000Y-104750000D02*
X149450000Y-104750000D01*
X148500000Y-105500000D02*
X148500000Y-105750000D01*
X148900000Y-105400000D02*
X148850000Y-105400000D01*
X148500000Y-105750000D02*
X148500000Y-111750000D01*
X148850000Y-105400000D02*
X148500000Y-105750000D01*
X148500000Y-105000000D02*
X148500000Y-105500000D01*
X148900000Y-105400000D02*
X148600000Y-105400000D01*
X148600000Y-105400000D02*
X148500000Y-105500000D01*
X148500000Y-111750000D02*
X152750000Y-116000000D01*
X148500000Y-101250000D02*
X148500000Y-105000000D01*
X148500000Y-105000000D02*
X148900000Y-105400000D01*
X148900000Y-105400000D02*
X149450000Y-105400000D01*
X136498732Y-101380047D02*
X140518685Y-105400000D01*
X140518685Y-105400000D02*
X147550000Y-105400000D01*
X147550000Y-104100000D02*
X147550000Y-103800000D01*
X147550000Y-103800000D02*
X146250000Y-102500000D01*
X149450000Y-103374998D02*
X150924998Y-101900000D01*
X150924998Y-101900000D02*
X157740000Y-101900000D01*
X157740000Y-101900000D02*
X160260000Y-101900000D01*
X149450000Y-103374998D02*
X149450000Y-102925000D01*
X149450000Y-102925000D02*
X149500000Y-102875000D01*
X149450000Y-104100000D02*
X149450000Y-103374998D01*
D25*
G36*
X131873000Y-97873000D02*
X126982203Y-97873000D01*
X127100942Y-97276058D01*
X126920004Y-96366420D01*
X126404735Y-95595265D01*
X125952000Y-95292757D01*
X125952000Y-92675831D01*
X126330588Y-92297904D01*
X126601690Y-91645018D01*
X126602307Y-90938084D01*
X126332345Y-90284726D01*
X125832904Y-89784412D01*
X125180018Y-89513310D01*
X124473084Y-89512693D01*
X123819726Y-89782655D01*
X123319412Y-90282096D01*
X123048310Y-90934982D01*
X123047693Y-91641916D01*
X123317655Y-92295274D01*
X123698000Y-92676284D01*
X123698000Y-95157708D01*
X123043149Y-95595265D01*
X120765414Y-97873000D01*
X118127000Y-97873000D01*
X118127000Y-85127000D01*
X131873000Y-85127000D01*
X131873000Y-97873000D01*
X131873000Y-97873000D01*
G37*
X131873000Y-97873000D02*
X126982203Y-97873000D01*
X127100942Y-97276058D01*
X126920004Y-96366420D01*
X126404735Y-95595265D01*
X125952000Y-95292757D01*
X125952000Y-92675831D01*
X126330588Y-92297904D01*
X126601690Y-91645018D01*
X126602307Y-90938084D01*
X126332345Y-90284726D01*
X125832904Y-89784412D01*
X125180018Y-89513310D01*
X124473084Y-89512693D01*
X123819726Y-89782655D01*
X123319412Y-90282096D01*
X123048310Y-90934982D01*
X123047693Y-91641916D01*
X123317655Y-92295274D01*
X123698000Y-92676284D01*
X123698000Y-95157708D01*
X123043149Y-95595265D01*
X120765414Y-97873000D01*
X118127000Y-97873000D01*
X118127000Y-85127000D01*
X131873000Y-85127000D01*
X131873000Y-97873000D01*
M02*
