G04 #@! TF.FileFunction,Legend,Bot*
%FSLAX46Y46*%
G04 Gerber Fmt 4.6, Leading zero omitted, Abs format (unit mm)*
G04 Created by KiCad (PCBNEW 4.0.7-e2-6376~58~ubuntu16.04.1) date Tue May 15 23:18:40 2018*
%MOMM*%
%LPD*%
G01*
G04 APERTURE LIST*
%ADD10C,0.100000*%
%ADD11C,0.500000*%
%ADD12C,0.150000*%
G04 APERTURE END LIST*
D10*
D11*
X147065803Y-103147000D02*
G75*
G03X147065803Y-103147000I-89803J0D01*
G01*
D12*
X149200000Y-102850000D02*
X147800000Y-102850000D01*
X149200000Y-100650000D02*
X147800000Y-100650000D01*
X125158333Y-85142381D02*
X125158333Y-85856667D01*
X125205953Y-85999524D01*
X125301191Y-86094762D01*
X125444048Y-86142381D01*
X125539286Y-86142381D01*
X124777381Y-85142381D02*
X124158333Y-85142381D01*
X124491667Y-85523333D01*
X124348809Y-85523333D01*
X124253571Y-85570952D01*
X124205952Y-85618571D01*
X124158333Y-85713810D01*
X124158333Y-85951905D01*
X124205952Y-86047143D01*
X124253571Y-86094762D01*
X124348809Y-86142381D01*
X124634524Y-86142381D01*
X124729762Y-86094762D01*
X124777381Y-86047143D01*
X145361581Y-100784895D02*
X146171105Y-100784895D01*
X146266343Y-100832514D01*
X146313962Y-100880133D01*
X146361581Y-100975371D01*
X146361581Y-101165848D01*
X146313962Y-101261086D01*
X146266343Y-101308705D01*
X146171105Y-101356324D01*
X145361581Y-101356324D01*
X145456819Y-101784895D02*
X145409200Y-101832514D01*
X145361581Y-101927752D01*
X145361581Y-102165848D01*
X145409200Y-102261086D01*
X145456819Y-102308705D01*
X145552057Y-102356324D01*
X145647295Y-102356324D01*
X145790152Y-102308705D01*
X146361581Y-101737276D01*
X146361581Y-102356324D01*
M02*
