G04 #@! TF.FileFunction,Copper,L2,Bot,Signal*
%FSLAX46Y46*%
G04 Gerber Fmt 4.6, Leading zero omitted, Abs format (unit mm)*
G04 Created by KiCad (PCBNEW 4.0.7-e2-6376~58~ubuntu16.04.1) date Sun Jun  3 17:29:45 2018*
%MOMM*%
%LPD*%
G01*
G04 APERTURE LIST*
%ADD10C,0.100000*%
%ADD11C,1.720000*%
%ADD12C,2.400000*%
%ADD13C,2.300000*%
%ADD14C,2.000000*%
%ADD15R,1.700000X1.700000*%
%ADD16O,1.700000X1.700000*%
%ADD17R,0.600000X0.420000*%
%ADD18C,2.500000*%
%ADD19C,3.300000*%
%ADD20C,0.600000*%
%ADD21C,0.250000*%
%ADD22C,3.500000*%
%ADD23C,2.000000*%
%ADD24C,0.254000*%
G04 APERTURE END LIST*
D10*
D11*
X160260000Y-51500000D03*
X160260000Y-54040000D03*
X160260000Y-56580000D03*
X160260000Y-59120000D03*
X160260000Y-61660000D03*
X160260000Y-64200000D03*
X160260000Y-66740000D03*
X160260000Y-69280000D03*
X160260000Y-71820000D03*
X160260000Y-74360000D03*
X160260000Y-76900000D03*
X160260000Y-79440000D03*
X160260000Y-81980000D03*
X160260000Y-84520000D03*
X160260000Y-87060000D03*
X160260000Y-89600000D03*
X160260000Y-92140000D03*
X160260000Y-94680000D03*
X160260000Y-97220000D03*
X160260000Y-99760000D03*
X160260000Y-102300000D03*
X160260000Y-104840000D03*
X160260000Y-107380000D03*
X160260000Y-109920000D03*
X160260000Y-112460000D03*
X160260000Y-115000000D03*
X160260000Y-117540000D03*
X160260000Y-120080000D03*
X160260000Y-122620000D03*
X160260000Y-125160000D03*
X160260000Y-127700000D03*
X160260000Y-130240000D03*
X162800000Y-51500000D03*
X162800000Y-54040000D03*
X162800000Y-56580000D03*
X162800000Y-59120000D03*
X162800000Y-61660000D03*
X162800000Y-64200000D03*
X162800000Y-66740000D03*
X162800000Y-69280000D03*
X162800000Y-71820000D03*
X162800000Y-74360000D03*
X162800000Y-76900000D03*
X162800000Y-79440000D03*
X162800000Y-81980000D03*
X162800000Y-84520000D03*
X162800000Y-87060000D03*
X162800000Y-89600000D03*
X162800000Y-92140000D03*
X162800000Y-94680000D03*
X162800000Y-97220000D03*
X162800000Y-99760000D03*
X162800000Y-102300000D03*
X162800000Y-104840000D03*
X162800000Y-107380000D03*
X162800000Y-109920000D03*
X162800000Y-112460000D03*
X162800000Y-115000000D03*
X162800000Y-117540000D03*
X162800000Y-120080000D03*
X162800000Y-122620000D03*
X162800000Y-125160000D03*
X162800000Y-127700000D03*
X162800000Y-130240000D03*
D12*
X122285000Y-88750000D03*
X127365000Y-88750000D03*
X127365000Y-93830000D03*
D13*
X124825000Y-91290000D03*
D12*
X122285000Y-93830000D03*
D14*
X153000000Y-56750000D03*
X96250000Y-125750000D03*
D15*
X153000000Y-74000000D03*
D16*
X153000000Y-71460000D03*
X153000000Y-68920000D03*
D15*
X149750000Y-118540000D03*
D16*
X149750000Y-116000000D03*
X149750000Y-113460000D03*
D17*
X147550000Y-102400000D03*
X147550000Y-101750000D03*
X147550000Y-101100000D03*
X149450000Y-102400000D03*
X149450000Y-101750000D03*
X149450000Y-101100000D03*
D18*
X108307315Y-74549231D03*
X103403237Y-67545481D03*
X112293672Y-80242338D03*
X141173391Y-107933676D03*
X146138401Y-114894364D03*
X137137505Y-102275574D03*
D15*
X149000000Y-133960000D03*
D16*
X149000000Y-136500000D03*
D15*
X92750000Y-55000000D03*
D16*
X92750000Y-52460000D03*
D19*
X116400000Y-86800000D03*
X116400000Y-95900000D03*
X133300000Y-86800000D03*
X133300000Y-95800000D03*
X97400000Y-92100000D03*
X152300000Y-90400000D03*
D20*
X150750000Y-125750000D03*
X146500000Y-104500000D03*
X146250000Y-101500000D03*
X139000000Y-105250000D03*
X126000000Y-105002403D03*
X150250000Y-103500000D03*
X148500000Y-101250000D03*
X137750000Y-104000000D03*
X126000000Y-104250000D03*
X146250000Y-102500000D03*
X149500000Y-102875000D03*
X149500000Y-52270892D03*
X150504219Y-51154109D03*
X153000000Y-51250000D03*
X154000000Y-51500000D03*
X155500000Y-52750000D03*
X155500000Y-51500000D03*
X154750000Y-52250000D03*
X153500000Y-52250000D03*
X151377305Y-52270892D03*
D21*
X143775421Y-118415421D02*
X143775421Y-118775421D01*
X143775421Y-118775421D02*
X150750000Y-125750000D01*
X146500000Y-104500000D02*
X143775421Y-107224579D01*
X143775421Y-107224579D02*
X143775421Y-118415421D01*
X147550000Y-101750000D02*
X146500000Y-101750000D01*
X146500000Y-101750000D02*
X146250000Y-101500000D01*
D22*
X116400000Y-95900000D02*
X116400000Y-98374873D01*
X116400000Y-98374873D02*
X119775127Y-101750000D01*
X133300000Y-99450000D02*
X133300000Y-95800000D01*
X119775127Y-101750000D02*
X131000000Y-101750000D01*
X131000000Y-101750000D02*
X133300000Y-99450000D01*
X149540000Y-71460000D02*
X148640000Y-71460000D01*
X148640000Y-71460000D02*
X133300000Y-86800000D01*
D23*
X153000000Y-71460000D02*
X149540000Y-71460000D01*
D21*
X139000000Y-105250000D02*
X139468433Y-104781567D01*
X139468433Y-104781567D02*
X145187528Y-104781567D01*
X114960651Y-104781567D02*
X115181487Y-105002403D01*
X115181487Y-105002403D02*
X126000000Y-105002403D01*
X150250000Y-103500000D02*
X150250000Y-110270336D01*
X150250000Y-110270336D02*
X146661034Y-113859302D01*
X146661034Y-113859302D02*
X146661034Y-115627068D01*
X102887018Y-92707934D02*
X114960651Y-104781567D01*
X102887018Y-66808245D02*
X102887018Y-92707934D01*
X145187528Y-104781567D02*
X146469094Y-103500000D01*
X149825736Y-103500000D02*
X150250000Y-103500000D01*
X146469094Y-103500000D02*
X149825736Y-103500000D01*
X149450000Y-101750000D02*
X150000000Y-101750000D01*
X150000000Y-101750000D02*
X150250000Y-102000000D01*
X150250000Y-102000000D02*
X150250000Y-103075736D01*
X150250000Y-103075736D02*
X150250000Y-103500000D01*
X149450000Y-101100000D02*
X148650000Y-101100000D01*
X148650000Y-101100000D02*
X148500000Y-101250000D01*
X147550000Y-101100000D02*
X147400000Y-101100000D01*
X137748731Y-100130048D02*
X136498732Y-101380047D01*
X147400000Y-101100000D02*
X146430048Y-100130048D01*
X146430048Y-100130048D02*
X137748731Y-100130048D01*
X137750000Y-104000000D02*
X138129156Y-104379156D01*
X138129156Y-104379156D02*
X145020844Y-104379156D01*
X115194650Y-104379156D02*
X125870844Y-104379156D01*
X125870844Y-104379156D02*
X126000000Y-104250000D01*
X106924999Y-85375246D02*
X106924999Y-96109505D01*
X112924606Y-81143405D02*
X111156840Y-81143405D01*
X111156840Y-81143405D02*
X106924999Y-85375246D01*
X106924999Y-96109505D02*
X115194650Y-104379156D01*
X145020844Y-104379156D02*
X146444952Y-102955048D01*
X146250000Y-102500000D02*
X146250000Y-102924264D01*
X146250000Y-102924264D02*
X146280784Y-102955048D01*
X146280784Y-102955048D02*
X146444952Y-102955048D01*
X146444952Y-102955048D02*
X147000000Y-102400000D01*
X147000000Y-102400000D02*
X147550000Y-102400000D01*
X149500000Y-102875000D02*
X149500000Y-102450000D01*
X149500000Y-102450000D02*
X149450000Y-102400000D01*
D22*
X116400000Y-86800000D02*
X116400000Y-78223498D01*
X116400000Y-78223498D02*
X142352606Y-52270892D01*
D21*
X149500000Y-52270892D02*
X150504219Y-51266673D01*
D22*
X142352606Y-52270892D02*
X149500000Y-52270892D01*
X149500000Y-52270892D02*
X151377305Y-52270892D01*
D21*
X150504219Y-51266673D02*
X150504219Y-51154109D01*
X155500000Y-52750000D02*
X155250000Y-52750000D01*
X155250000Y-52750000D02*
X154000000Y-51500000D01*
X154750000Y-52250000D02*
X155500000Y-51500000D01*
X151377305Y-52270892D02*
X153479108Y-52270892D01*
X153479108Y-52270892D02*
X153500000Y-52250000D01*
D22*
X151377305Y-52270892D02*
X151545592Y-52102605D01*
D23*
X149000000Y-136500000D02*
X147797919Y-136500000D01*
X147797919Y-136500000D02*
X147547919Y-136750000D01*
X147547919Y-136750000D02*
X145750000Y-136750000D01*
D22*
X99224554Y-136750000D02*
X145750000Y-136750000D01*
X92750000Y-56250000D02*
X92750000Y-130275446D01*
X92750000Y-130275446D02*
X99224554Y-136750000D01*
D23*
X92750000Y-55000000D02*
X92750000Y-56250000D01*
D22*
X96460000Y-52460000D02*
X103789645Y-52460000D01*
X103789645Y-52460000D02*
X107999645Y-48250000D01*
X107999645Y-48250000D02*
X154406099Y-48250000D01*
X154406099Y-48250000D02*
X154662978Y-48506879D01*
D23*
X92750000Y-52460000D02*
X96460000Y-52460000D01*
D22*
X157250000Y-126000000D02*
X157250000Y-67750000D01*
X150250000Y-132750000D02*
X150500000Y-132750000D01*
X150500000Y-132750000D02*
X157250000Y-126000000D01*
D23*
X149040000Y-133960000D02*
X150250000Y-132750000D01*
X149000000Y-133960000D02*
X149040000Y-133960000D01*
D24*
G36*
X163598000Y-50619255D02*
X163473260Y-50494297D01*
X163037145Y-50313206D01*
X162564927Y-50312794D01*
X162128497Y-50493123D01*
X161794297Y-50826740D01*
X161613206Y-51262855D01*
X161612794Y-51735073D01*
X161793123Y-52171503D01*
X162126740Y-52505703D01*
X162562855Y-52686794D01*
X163035073Y-52687206D01*
X163471503Y-52506877D01*
X163598000Y-52380601D01*
X163598000Y-57673000D01*
X160723069Y-57673000D01*
X160931503Y-57586877D01*
X161265703Y-57253260D01*
X161446794Y-56817145D01*
X161447206Y-56344927D01*
X161266877Y-55908497D01*
X160933260Y-55574297D01*
X160497145Y-55393206D01*
X160024927Y-55392794D01*
X159588497Y-55573123D01*
X159254297Y-55906740D01*
X159073206Y-56342855D01*
X159072794Y-56815073D01*
X159253123Y-57251503D01*
X159586740Y-57585703D01*
X159796974Y-57673000D01*
X156127000Y-57673000D01*
X156127000Y-54275073D01*
X159072794Y-54275073D01*
X159253123Y-54711503D01*
X159586740Y-55045703D01*
X160022855Y-55226794D01*
X160495073Y-55227206D01*
X160931503Y-55046877D01*
X161265703Y-54713260D01*
X161446794Y-54277145D01*
X161447206Y-53804927D01*
X161266877Y-53368497D01*
X160933260Y-53034297D01*
X160497145Y-52853206D01*
X160024927Y-52852794D01*
X159588497Y-53033123D01*
X159254297Y-53366740D01*
X159073206Y-53802855D01*
X159072794Y-54275073D01*
X156127000Y-54275073D01*
X156127000Y-53549393D01*
X156228008Y-53484396D01*
X156301237Y-53377221D01*
X156327000Y-53250000D01*
X156327000Y-51735073D01*
X159072794Y-51735073D01*
X159253123Y-52171503D01*
X159586740Y-52505703D01*
X160022855Y-52686794D01*
X160495073Y-52687206D01*
X160931503Y-52506877D01*
X161265703Y-52173260D01*
X161446794Y-51737145D01*
X161447206Y-51264927D01*
X161266877Y-50828497D01*
X160933260Y-50494297D01*
X160497145Y-50313206D01*
X160024927Y-50312794D01*
X159588497Y-50493123D01*
X159254297Y-50826740D01*
X159073206Y-51262855D01*
X159072794Y-51735073D01*
X156327000Y-51735073D01*
X156327000Y-51000000D01*
X156304637Y-50881149D01*
X156234396Y-50771992D01*
X156127221Y-50698763D01*
X156000000Y-50673000D01*
X153245416Y-50673000D01*
X153127000Y-50623829D01*
X153127000Y-47127000D01*
X163598000Y-47127000D01*
X163598000Y-50619255D01*
X163598000Y-50619255D01*
G37*
X163598000Y-50619255D02*
X163473260Y-50494297D01*
X163037145Y-50313206D01*
X162564927Y-50312794D01*
X162128497Y-50493123D01*
X161794297Y-50826740D01*
X161613206Y-51262855D01*
X161612794Y-51735073D01*
X161793123Y-52171503D01*
X162126740Y-52505703D01*
X162562855Y-52686794D01*
X163035073Y-52687206D01*
X163471503Y-52506877D01*
X163598000Y-52380601D01*
X163598000Y-57673000D01*
X160723069Y-57673000D01*
X160931503Y-57586877D01*
X161265703Y-57253260D01*
X161446794Y-56817145D01*
X161447206Y-56344927D01*
X161266877Y-55908497D01*
X160933260Y-55574297D01*
X160497145Y-55393206D01*
X160024927Y-55392794D01*
X159588497Y-55573123D01*
X159254297Y-55906740D01*
X159073206Y-56342855D01*
X159072794Y-56815073D01*
X159253123Y-57251503D01*
X159586740Y-57585703D01*
X159796974Y-57673000D01*
X156127000Y-57673000D01*
X156127000Y-54275073D01*
X159072794Y-54275073D01*
X159253123Y-54711503D01*
X159586740Y-55045703D01*
X160022855Y-55226794D01*
X160495073Y-55227206D01*
X160931503Y-55046877D01*
X161265703Y-54713260D01*
X161446794Y-54277145D01*
X161447206Y-53804927D01*
X161266877Y-53368497D01*
X160933260Y-53034297D01*
X160497145Y-52853206D01*
X160024927Y-52852794D01*
X159588497Y-53033123D01*
X159254297Y-53366740D01*
X159073206Y-53802855D01*
X159072794Y-54275073D01*
X156127000Y-54275073D01*
X156127000Y-53549393D01*
X156228008Y-53484396D01*
X156301237Y-53377221D01*
X156327000Y-53250000D01*
X156327000Y-51735073D01*
X159072794Y-51735073D01*
X159253123Y-52171503D01*
X159586740Y-52505703D01*
X160022855Y-52686794D01*
X160495073Y-52687206D01*
X160931503Y-52506877D01*
X161265703Y-52173260D01*
X161446794Y-51737145D01*
X161447206Y-51264927D01*
X161266877Y-50828497D01*
X160933260Y-50494297D01*
X160497145Y-50313206D01*
X160024927Y-50312794D01*
X159588497Y-50493123D01*
X159254297Y-50826740D01*
X159073206Y-51262855D01*
X159072794Y-51735073D01*
X156327000Y-51735073D01*
X156327000Y-51000000D01*
X156304637Y-50881149D01*
X156234396Y-50771992D01*
X156127221Y-50698763D01*
X156000000Y-50673000D01*
X153245416Y-50673000D01*
X153127000Y-50623829D01*
X153127000Y-47127000D01*
X163598000Y-47127000D01*
X163598000Y-50619255D01*
G36*
X159254297Y-58446740D02*
X159073206Y-58882855D01*
X159072794Y-59355073D01*
X159253123Y-59791503D01*
X159586740Y-60125703D01*
X160022855Y-60306794D01*
X160495073Y-60307206D01*
X160931503Y-60126877D01*
X161265703Y-59793260D01*
X161446794Y-59357145D01*
X161447206Y-58884927D01*
X161266877Y-58448497D01*
X160945941Y-58127000D01*
X163598000Y-58127000D01*
X163598000Y-63319255D01*
X163473260Y-63194297D01*
X163037145Y-63013206D01*
X162564927Y-63012794D01*
X162128497Y-63193123D01*
X161794297Y-63526740D01*
X161613206Y-63962855D01*
X161612794Y-64435073D01*
X161793123Y-64871503D01*
X162126740Y-65205703D01*
X162562855Y-65386794D01*
X163035073Y-65387206D01*
X163471503Y-65206877D01*
X163598000Y-65080601D01*
X163598000Y-65859255D01*
X163473260Y-65734297D01*
X163037145Y-65553206D01*
X162564927Y-65552794D01*
X162128497Y-65733123D01*
X161794297Y-66066740D01*
X161613206Y-66502855D01*
X161612794Y-66975073D01*
X161793123Y-67411503D01*
X162126740Y-67745703D01*
X162562855Y-67926794D01*
X163035073Y-67927206D01*
X163471503Y-67746877D01*
X163598000Y-67620601D01*
X163598000Y-68399255D01*
X163473260Y-68274297D01*
X163037145Y-68093206D01*
X162564927Y-68092794D01*
X162128497Y-68273123D01*
X161794297Y-68606740D01*
X161787545Y-68623000D01*
X161272870Y-68623000D01*
X161266877Y-68608497D01*
X160933260Y-68274297D01*
X160497145Y-68093206D01*
X160024927Y-68092794D01*
X159588497Y-68273123D01*
X159254297Y-68606740D01*
X159247545Y-68623000D01*
X155127000Y-68623000D01*
X155127000Y-66975073D01*
X159072794Y-66975073D01*
X159253123Y-67411503D01*
X159586740Y-67745703D01*
X160022855Y-67926794D01*
X160495073Y-67927206D01*
X160931503Y-67746877D01*
X161265703Y-67413260D01*
X161446794Y-66977145D01*
X161447206Y-66504927D01*
X161266877Y-66068497D01*
X160933260Y-65734297D01*
X160497145Y-65553206D01*
X160024927Y-65552794D01*
X159588497Y-65733123D01*
X159254297Y-66066740D01*
X159073206Y-66502855D01*
X159072794Y-66975073D01*
X155127000Y-66975073D01*
X155127000Y-64435073D01*
X159072794Y-64435073D01*
X159253123Y-64871503D01*
X159586740Y-65205703D01*
X160022855Y-65386794D01*
X160495073Y-65387206D01*
X160931503Y-65206877D01*
X161265703Y-64873260D01*
X161446794Y-64437145D01*
X161447206Y-63964927D01*
X161266877Y-63528497D01*
X160933260Y-63194297D01*
X160497145Y-63013206D01*
X160024927Y-63012794D01*
X159588497Y-63193123D01*
X159254297Y-63526740D01*
X159073206Y-63962855D01*
X159072794Y-64435073D01*
X155127000Y-64435073D01*
X155127000Y-61895073D01*
X159072794Y-61895073D01*
X159253123Y-62331503D01*
X159586740Y-62665703D01*
X160022855Y-62846794D01*
X160495073Y-62847206D01*
X160931503Y-62666877D01*
X161265703Y-62333260D01*
X161446794Y-61897145D01*
X161447206Y-61424927D01*
X161266877Y-60988497D01*
X160933260Y-60654297D01*
X160497145Y-60473206D01*
X160024927Y-60472794D01*
X159588497Y-60653123D01*
X159254297Y-60986740D01*
X159073206Y-61422855D01*
X159072794Y-61895073D01*
X155127000Y-61895073D01*
X155127000Y-58127000D01*
X159574596Y-58127000D01*
X159254297Y-58446740D01*
X159254297Y-58446740D01*
G37*
X159254297Y-58446740D02*
X159073206Y-58882855D01*
X159072794Y-59355073D01*
X159253123Y-59791503D01*
X159586740Y-60125703D01*
X160022855Y-60306794D01*
X160495073Y-60307206D01*
X160931503Y-60126877D01*
X161265703Y-59793260D01*
X161446794Y-59357145D01*
X161447206Y-58884927D01*
X161266877Y-58448497D01*
X160945941Y-58127000D01*
X163598000Y-58127000D01*
X163598000Y-63319255D01*
X163473260Y-63194297D01*
X163037145Y-63013206D01*
X162564927Y-63012794D01*
X162128497Y-63193123D01*
X161794297Y-63526740D01*
X161613206Y-63962855D01*
X161612794Y-64435073D01*
X161793123Y-64871503D01*
X162126740Y-65205703D01*
X162562855Y-65386794D01*
X163035073Y-65387206D01*
X163471503Y-65206877D01*
X163598000Y-65080601D01*
X163598000Y-65859255D01*
X163473260Y-65734297D01*
X163037145Y-65553206D01*
X162564927Y-65552794D01*
X162128497Y-65733123D01*
X161794297Y-66066740D01*
X161613206Y-66502855D01*
X161612794Y-66975073D01*
X161793123Y-67411503D01*
X162126740Y-67745703D01*
X162562855Y-67926794D01*
X163035073Y-67927206D01*
X163471503Y-67746877D01*
X163598000Y-67620601D01*
X163598000Y-68399255D01*
X163473260Y-68274297D01*
X163037145Y-68093206D01*
X162564927Y-68092794D01*
X162128497Y-68273123D01*
X161794297Y-68606740D01*
X161787545Y-68623000D01*
X161272870Y-68623000D01*
X161266877Y-68608497D01*
X160933260Y-68274297D01*
X160497145Y-68093206D01*
X160024927Y-68092794D01*
X159588497Y-68273123D01*
X159254297Y-68606740D01*
X159247545Y-68623000D01*
X155127000Y-68623000D01*
X155127000Y-66975073D01*
X159072794Y-66975073D01*
X159253123Y-67411503D01*
X159586740Y-67745703D01*
X160022855Y-67926794D01*
X160495073Y-67927206D01*
X160931503Y-67746877D01*
X161265703Y-67413260D01*
X161446794Y-66977145D01*
X161447206Y-66504927D01*
X161266877Y-66068497D01*
X160933260Y-65734297D01*
X160497145Y-65553206D01*
X160024927Y-65552794D01*
X159588497Y-65733123D01*
X159254297Y-66066740D01*
X159073206Y-66502855D01*
X159072794Y-66975073D01*
X155127000Y-66975073D01*
X155127000Y-64435073D01*
X159072794Y-64435073D01*
X159253123Y-64871503D01*
X159586740Y-65205703D01*
X160022855Y-65386794D01*
X160495073Y-65387206D01*
X160931503Y-65206877D01*
X161265703Y-64873260D01*
X161446794Y-64437145D01*
X161447206Y-63964927D01*
X161266877Y-63528497D01*
X160933260Y-63194297D01*
X160497145Y-63013206D01*
X160024927Y-63012794D01*
X159588497Y-63193123D01*
X159254297Y-63526740D01*
X159073206Y-63962855D01*
X159072794Y-64435073D01*
X155127000Y-64435073D01*
X155127000Y-61895073D01*
X159072794Y-61895073D01*
X159253123Y-62331503D01*
X159586740Y-62665703D01*
X160022855Y-62846794D01*
X160495073Y-62847206D01*
X160931503Y-62666877D01*
X161265703Y-62333260D01*
X161446794Y-61897145D01*
X161447206Y-61424927D01*
X161266877Y-60988497D01*
X160933260Y-60654297D01*
X160497145Y-60473206D01*
X160024927Y-60472794D01*
X159588497Y-60653123D01*
X159254297Y-60986740D01*
X159073206Y-61422855D01*
X159072794Y-61895073D01*
X155127000Y-61895073D01*
X155127000Y-58127000D01*
X159574596Y-58127000D01*
X159254297Y-58446740D01*
G36*
X152373000Y-51000000D02*
X152383006Y-51049410D01*
X152411447Y-51091035D01*
X152453841Y-51118315D01*
X152500000Y-51127000D01*
X155873000Y-51127000D01*
X155873000Y-53123000D01*
X150377000Y-53123000D01*
X150377000Y-50627000D01*
X152373000Y-50627000D01*
X152373000Y-51000000D01*
X152373000Y-51000000D01*
G37*
X152373000Y-51000000D02*
X152383006Y-51049410D01*
X152411447Y-51091035D01*
X152453841Y-51118315D01*
X152500000Y-51127000D01*
X155873000Y-51127000D01*
X155873000Y-53123000D01*
X150377000Y-53123000D01*
X150377000Y-50627000D01*
X152373000Y-50627000D01*
X152373000Y-51000000D01*
M02*
