G04 #@! TF.FileFunction,Legend,Top*
%FSLAX46Y46*%
G04 Gerber Fmt 4.6, Leading zero omitted, Abs format (unit mm)*
G04 Created by KiCad (PCBNEW 4.0.7-e2-6376~58~ubuntu16.04.1) date Tue May 15 20:23:52 2018*
%MOMM*%
%LPD*%
G01*
G04 APERTURE LIST*
%ADD10C,0.100000*%
%ADD11C,0.150000*%
%ADD12C,0.200000*%
%ADD13C,1.000000*%
%ADD14C,0.120000*%
%ADD15C,0.500000*%
G04 APERTURE END LIST*
D10*
D11*
X162607143Y-135702381D02*
X162035714Y-135702381D01*
X162321428Y-135702381D02*
X162321428Y-134702381D01*
X162226190Y-134845238D01*
X162130952Y-134940476D01*
X162035714Y-134988095D01*
X162988095Y-135416667D02*
X163464286Y-135416667D01*
X162892857Y-135702381D02*
X163226190Y-134702381D01*
X163559524Y-135702381D01*
D12*
X116330000Y-74380000D02*
G75*
G03X116330000Y-74380000I-80000J0D01*
G01*
X110950000Y-66700000D02*
G75*
G03X110950000Y-66700000I-90000J0D01*
G01*
X134050000Y-107790000D02*
G75*
G03X134050000Y-107790000I-40000J0D01*
G01*
D13*
X139540000Y-115400000D02*
G75*
G03X139540000Y-115400000I-10000J0D01*
G01*
D11*
X159030000Y-133980000D02*
X164030000Y-133980000D01*
X159030000Y-52040000D02*
X159030000Y-133980000D01*
X164030000Y-52040000D02*
X164030000Y-133980000D01*
X159030000Y-52040000D02*
X164030000Y-52040000D01*
D14*
X154330000Y-72730000D02*
X154330000Y-67590000D01*
X154330000Y-67590000D02*
X151670000Y-67590000D01*
X151670000Y-67590000D02*
X151670000Y-72730000D01*
X151670000Y-72730000D02*
X154330000Y-72730000D01*
X154330000Y-74000000D02*
X154330000Y-75330000D01*
X154330000Y-75330000D02*
X153000000Y-75330000D01*
X154080000Y-117270000D02*
X154080000Y-112130000D01*
X154080000Y-112130000D02*
X151420000Y-112130000D01*
X151420000Y-112130000D02*
X151420000Y-117270000D01*
X151420000Y-117270000D02*
X154080000Y-117270000D01*
X154080000Y-118540000D02*
X154080000Y-119870000D01*
X154080000Y-119870000D02*
X152750000Y-119870000D01*
D15*
X147065803Y-103353000D02*
G75*
G03X147065803Y-103353000I-89803J0D01*
G01*
D11*
X149200000Y-103650000D02*
X147800000Y-103650000D01*
X149200000Y-105850000D02*
X147800000Y-105850000D01*
X115563693Y-60068296D02*
X131376558Y-72190727D01*
X115563693Y-60068296D02*
X126707221Y-74239457D01*
X113597219Y-57782913D02*
X125068747Y-74165954D01*
X116303820Y-80303222D02*
X125068747Y-74165954D01*
X111141632Y-72930854D02*
X115156668Y-78664918D01*
X105979445Y-65558485D02*
X109994480Y-71292550D01*
X104832292Y-63920181D02*
X113597219Y-57782913D01*
X134043657Y-122477383D02*
X118125608Y-110493406D01*
X134043657Y-122477383D02*
X122776889Y-108404007D01*
X136030001Y-124745519D02*
X124415942Y-108463208D01*
X133126978Y-102249687D02*
X124415942Y-108463208D01*
X138353305Y-109576726D02*
X134288384Y-103877918D01*
X143579631Y-116903766D02*
X139514710Y-111204957D01*
X144741037Y-118531997D02*
X136030001Y-124745519D01*
X160942667Y-48647381D02*
X160942667Y-49361667D01*
X160895047Y-49504524D01*
X160799809Y-49599762D01*
X160656952Y-49647381D01*
X160561714Y-49647381D01*
X161371238Y-48742619D02*
X161418857Y-48695000D01*
X161514095Y-48647381D01*
X161752191Y-48647381D01*
X161847429Y-48695000D01*
X161895048Y-48742619D01*
X161942667Y-48837857D01*
X161942667Y-48933095D01*
X161895048Y-49075952D01*
X161323619Y-49647381D01*
X161942667Y-49647381D01*
X152190477Y-75782381D02*
X152190477Y-76496667D01*
X152142857Y-76639524D01*
X152047619Y-76734762D01*
X151904762Y-76782381D01*
X151809524Y-76782381D01*
X153190477Y-76782381D02*
X152619048Y-76782381D01*
X152904762Y-76782381D02*
X152904762Y-75782381D01*
X152809524Y-75925238D01*
X152714286Y-76020476D01*
X152619048Y-76068095D01*
X154047620Y-75782381D02*
X153857143Y-75782381D01*
X153761905Y-75830000D01*
X153714286Y-75877619D01*
X153619048Y-76020476D01*
X153571429Y-76210952D01*
X153571429Y-76591905D01*
X153619048Y-76687143D01*
X153666667Y-76734762D01*
X153761905Y-76782381D01*
X153952382Y-76782381D01*
X154047620Y-76734762D01*
X154095239Y-76687143D01*
X154142858Y-76591905D01*
X154142858Y-76353810D01*
X154095239Y-76258571D01*
X154047620Y-76210952D01*
X153952382Y-76163333D01*
X153761905Y-76163333D01*
X153666667Y-76210952D01*
X153619048Y-76258571D01*
X153571429Y-76353810D01*
X151940477Y-120322381D02*
X151940477Y-121036667D01*
X151892857Y-121179524D01*
X151797619Y-121274762D01*
X151654762Y-121322381D01*
X151559524Y-121322381D01*
X152940477Y-121322381D02*
X152369048Y-121322381D01*
X152654762Y-121322381D02*
X152654762Y-120322381D01*
X152559524Y-120465238D01*
X152464286Y-120560476D01*
X152369048Y-120608095D01*
X153273810Y-120322381D02*
X153940477Y-120322381D01*
X153511905Y-121322381D01*
X145361581Y-105715105D02*
X146171105Y-105715105D01*
X146266343Y-105667486D01*
X146313962Y-105619867D01*
X146361581Y-105524629D01*
X146361581Y-105334152D01*
X146313962Y-105238914D01*
X146266343Y-105191295D01*
X146171105Y-105143676D01*
X145361581Y-105143676D01*
X146361581Y-104143676D02*
X146361581Y-104715105D01*
X146361581Y-104429391D02*
X145361581Y-104429391D01*
X145504438Y-104524629D01*
X145599676Y-104619867D01*
X145647295Y-104715105D01*
X120113116Y-79350822D02*
X120257451Y-79307890D01*
X120452488Y-79171324D01*
X120503189Y-79077690D01*
X120514883Y-79011370D01*
X120499264Y-78906042D01*
X120444638Y-78828028D01*
X120351005Y-78777327D01*
X120284684Y-78765632D01*
X120179356Y-78781251D01*
X119996013Y-78851497D01*
X119890686Y-78867116D01*
X119824365Y-78855422D01*
X119730732Y-78804720D01*
X119676106Y-78726706D01*
X119660487Y-78621378D01*
X119672181Y-78555058D01*
X119722882Y-78461425D01*
X119917919Y-78324858D01*
X120062254Y-78281926D01*
X120307991Y-78051727D02*
X121076603Y-78734313D01*
X120822935Y-78039951D01*
X121388662Y-78515808D01*
X121010121Y-77560090D01*
X121337798Y-77446912D02*
X121349492Y-77380592D01*
X121400193Y-77286959D01*
X121595230Y-77150392D01*
X121700558Y-77134773D01*
X121766878Y-77146467D01*
X121860511Y-77197169D01*
X121915138Y-77275183D01*
X121958070Y-77419518D01*
X121817741Y-78215363D01*
X122324835Y-77860292D01*
X127625256Y-105442879D02*
X127769211Y-105398689D01*
X127963049Y-105260426D01*
X128012931Y-105166354D01*
X128024046Y-105099934D01*
X128007508Y-104994747D01*
X127952203Y-104917212D01*
X127858131Y-104867330D01*
X127791711Y-104856215D01*
X127686523Y-104872752D01*
X127503800Y-104944595D01*
X127398613Y-104961133D01*
X127332193Y-104950018D01*
X127238121Y-104900135D01*
X127182816Y-104822601D01*
X127166278Y-104717414D01*
X127177393Y-104650994D01*
X127227275Y-104556921D01*
X127421113Y-104418658D01*
X127565068Y-104374468D01*
X127808787Y-104142133D02*
X128583327Y-104817986D01*
X128323609Y-104125864D01*
X128893466Y-104596766D01*
X128506600Y-103644388D01*
X129823884Y-103933105D02*
X129358675Y-104264936D01*
X129591279Y-104099021D02*
X129010576Y-103284905D01*
X129015999Y-103456513D01*
X128993769Y-103589352D01*
X128943887Y-103683425D01*
M02*
